<svg width="20" height="20" viewBox="0 0 20 20" fill="none" xmlns="http://www.w3.org/2000/svg">
<path d="M7.60529 1.3655C7.89145 1.28629 8.19384 1.41933 8.32877 1.68382C8.63965 2.29318 9.27207 2.70826 10.0003 2.70826C10.7286 2.70826 11.361 2.29318 11.6719 1.68382C11.8068 1.41933 12.1092 1.28629 12.3954 1.3655C13.799 1.75406 15.0636 2.47526 16.099 3.43804C16.3012 3.62606 16.3561 3.92449 16.234 4.17214C16.1113 4.42104 16.042 4.70151 16.042 4.99992C16.042 6.03545 16.8815 6.87492 17.917 6.87492L17.9431 6.87473C18.2194 6.87079 18.4655 7.04875 18.5484 7.31238C18.8151 8.16157 18.9587 9.06457 18.9587 9.99992C18.9587 10.6173 18.8961 11.2207 18.7768 11.8039C18.7127 12.1175 18.4219 12.332 18.1034 12.3007C18.0423 12.2947 17.9802 12.2916 17.917 12.2916C16.8815 12.2916 16.042 13.1311 16.042 14.1666C16.042 14.6275 16.2075 15.0482 16.4831 15.3748C16.6895 15.6194 16.6777 15.9805 16.4557 16.2112C15.3984 17.3098 14.0625 18.1397 12.5604 18.5869C12.2343 18.684 11.8904 18.5024 11.7868 18.1782C11.5449 17.4216 10.8356 16.8749 10.0003 16.8749C9.16502 16.8749 8.45578 17.4216 8.2139 18.1782C8.11028 18.5024 7.76639 18.684 7.44024 18.5869C5.9382 18.1397 4.60224 17.3098 3.54494 16.2112C3.32296 15.9805 3.31115 15.6194 3.51759 15.3748C3.79315 15.0482 3.95866 14.6275 3.95866 14.1666C3.95866 13.1311 3.11919 12.2916 2.08366 12.2916C2.02052 12.2916 1.95835 12.2947 1.89727 12.3007C1.57871 12.332 1.28798 12.1175 1.22383 11.8039C1.10453 11.2207 1.04199 10.6173 1.04199 9.99992C1.04199 9.06457 1.18555 8.16157 1.4523 7.31237C1.5351 7.04875 1.7812 6.87079 2.05749 6.87473L2.08366 6.87492C3.11919 6.87492 3.95866 6.03545 3.95866 4.99992C3.95866 4.70151 3.8894 4.42105 3.76668 4.17214C3.64457 3.92449 3.69944 3.62606 3.90165 3.43804C4.93709 2.47526 6.2016 1.75406 7.60529 1.3655ZM5.0693 4.07485C5.15993 4.36762 5.20866 4.67845 5.20866 4.99992C5.20866 6.57446 4.04417 7.87703 2.52943 8.09337C2.37447 8.70257 2.29199 9.34122 2.29199 9.99992C2.29199 10.3577 2.31633 10.7096 2.36338 11.0539C3.95822 11.1954 5.20866 12.535 5.20866 14.1666C5.20866 14.7224 5.06316 15.245 4.80842 15.6976C5.52237 16.3486 6.35868 16.8669 7.27835 17.2141C7.81454 16.2657 8.83202 15.6249 10.0003 15.6249C11.1686 15.6249 12.1861 16.2657 12.7223 17.2141C13.642 16.8669 14.4783 16.3486 15.1922 15.6976C14.9375 15.245 14.792 14.7224 14.792 14.1666C14.792 12.535 16.0424 11.1954 17.6373 11.0539C17.6843 10.7096 17.7087 10.3577 17.7087 9.99992C17.7087 9.34123 17.6262 8.70257 17.4712 8.09337C15.9565 7.87703 14.792 6.57446 14.792 4.99992C14.792 4.67846 14.8407 4.36762 14.9314 4.07485C14.2185 3.48084 13.3971 3.01337 12.5018 2.70638C11.9323 3.46573 11.0242 3.95826 10.0003 3.95826C8.97643 3.95826 8.06831 3.46573 7.49882 2.70638C6.60351 3.01337 5.78218 3.48084 5.0693 4.07485Z" fill="#0C0C0C"/>
<path d="M6.45866 9.99992C6.45866 8.04391 8.04431 6.45825 10.0003 6.45825C11.9563 6.45825 13.542 8.04391 13.542 9.99992C13.542 11.9559 11.9563 13.5416 10.0003 13.5416C8.04431 13.5416 6.45866 11.9559 6.45866 9.99992ZM10.0003 7.70825C8.73467 7.70825 7.70866 8.73427 7.70866 9.99992C7.70866 11.2656 8.73467 12.2916 10.0003 12.2916C11.266 12.2916 12.292 11.2656 12.292 9.99992C12.292 8.73427 11.266 7.70825 10.0003 7.70825Z" fill="#0C0C0C"/>
</svg>
