<svg width="90" height="48" viewBox="0 0 90 48" fill="none" xmlns="http://www.w3.org/2000/svg">
<rect x="0.75" y="0.5" width="88.25" height="47" rx="3.5" fill="#F9F9F9"/>
<rect x="0.75" y="0.5" width="88.25" height="47" rx="3.5" stroke="#D9D9D9"/>
<path fill-rule="evenodd" clip-rule="evenodd" d="M28.4762 43.1999V26.5781H37.3818L38.3373 29.0396L39.3244 26.5781H71.6495V42.0536C71.6495 42.0536 70.8042 43.1833 69.8265 43.1999H51.9274L50.8501 40.5797V43.1999H47.32V38.7271C47.32 38.7271 46.8378 39.3515 45.7953 39.3515H44.5937V43.1999H39.2488L38.2947 40.6856L37.326 43.1999H28.4762ZM18.0996 14.0526L20.1033 4.80005H23.5685L24.7056 9.98293V4.80005H29.0131L29.6901 8.54608L30.3463 4.80005H49.6827V6.6833C49.6827 6.6833 50.6992 4.80005 52.3698 4.80005L58.6437 4.84348L59.7612 9.95853V4.80005H63.366L64.3581 7.73823V4.80005H67.996V21.4218H64.3581L63.4073 18.4741V21.4218H58.1111L57.5785 18.8016H56.1547L55.6308 21.4218H52.039C50.6016 21.4218 49.6827 19.577 49.6827 19.577V21.4218H44.2673L43.1925 18.8016V21.4218H23.0551L22.5229 18.8016H21.1036L20.5752 21.4218H18.0996V14.0526ZM18.1101 19.2896L20.8126 6.8438H22.8615L25.5614 19.2896H23.7632L23.2671 16.7974H20.3682L19.8696 19.2896H18.1101ZM22.6964 14.0957L21.8128 9.74067L20.9266 14.0957H22.6964ZM25.7464 19.2897V6.8438L28.2468 6.86219L29.7011 14.8865L31.1205 6.8438H33.6009V19.2897H32.03V10.119L30.3648 19.2897H28.9871L27.3173 10.119V19.2897H25.7464ZM34.6758 19.2897V6.8438H39.8018V9.62775H36.2632V11.7566H39.7192V14.3768H36.2632V16.5876H39.8018V19.2897H34.6758ZM40.7132 19.2896V6.8438H44.209C45.3673 6.8438 46.4051 8.2625 46.4051 10.8815C46.4051 13.1205 45.5301 14.5626 44.6818 14.7043L46.7488 19.2896H44.8291L42.9456 14.8681H42.2841V19.2896H40.7132ZM44.0808 9.62817H42.2851V12.2483H44.1041C44.4189 12.2483 44.8249 11.7651 44.8249 10.9383C44.8249 10.2956 44.5116 9.62817 44.0808 9.62817ZM48.6492 19.2897H47.0453V6.8438H48.6492V19.2897ZM52.454 19.2897H52.1078C50.4326 19.2897 49.4156 16.6756 49.4156 13.1179C49.4156 9.47229 50.4212 6.8438 52.5367 6.8438H54.2729V9.7915H52.4732C51.6144 9.7915 51.0071 11.1189 51.0071 13.1486C51.0071 15.5589 51.7016 16.5712 52.702 16.5712H53.1154L52.454 19.2897ZM53.1673 19.2896L55.8698 6.8438H57.9187L60.6186 19.2896H58.8204L58.3243 16.7974H55.4254L54.9268 19.2896H53.1673ZM57.7532 14.0957L56.8696 9.74067L55.9834 14.0957H57.7532ZM60.8032 19.2897V6.8438H62.8004L65.3505 14.6634V6.8438H66.9214V19.2897H64.9888L62.3741 11.2654V19.2897H60.8032ZM29.5509 41.077V28.6311H34.6769V31.4151H31.1383V33.544H34.5943V36.1641H31.1383V38.3749H34.6769V41.077H29.5509ZM54.6677 41.077V28.6311H59.7938V31.4151H56.2551V33.544H59.6945V36.1641H56.2551V38.3749H59.7938V41.077H54.6677ZM34.8755 41.077L37.3714 34.9308L34.8161 28.6311H36.7952L38.317 32.5256L39.844 28.6311H41.7456L39.2239 34.8541L41.7243 41.077H39.7455L38.2679 37.2439L36.8262 41.077H34.8755ZM41.9121 41.0725V28.6266H45.382C46.8058 28.6266 47.6376 30.4442 47.6376 32.8127C47.6376 35.672 46.577 37.1422 45.1779 37.1422H43.5243V41.0725H41.9121ZM45.2651 31.4391H43.5237V34.3049H45.2599C45.7187 34.3049 46.0402 33.7027 46.0402 32.872C46.0402 31.9878 45.7171 31.4391 45.2651 31.4391ZM48.3195 41.0725V28.6266H51.8153C52.9736 28.6266 54.0114 30.0453 54.0114 32.6643C54.0114 34.9033 53.1364 36.3453 52.2881 36.4871L54.3551 41.0725H52.4354L50.5518 36.6509H49.8904V41.0725H48.3195ZM51.6871 31.411H49.8914V34.0312H51.7104C52.0252 34.0312 52.4312 33.5479 52.4312 32.7211C52.4312 32.0784 52.1179 31.411 51.6871 31.411ZM60.5224 41.077V38.3749H63.6663C64.1315 38.3749 64.3329 37.877 64.3329 37.3309C64.3329 36.8077 64.1321 36.2788 63.6663 36.2788H62.2456C61.0107 36.2788 60.323 34.7885 60.323 32.5512C60.323 30.5556 60.9528 28.6311 62.7878 28.6311H65.8469L65.1855 31.4314H62.5398C62.034 31.4314 61.8784 31.9571 61.8784 32.4591C61.8784 32.975 62.0707 33.544 62.4571 33.544H63.9453C65.3219 33.544 65.9193 35.0906 65.9193 37.116C65.9193 39.2935 65.2536 41.077 63.8704 41.077H60.5224ZM66.0561 41.077V38.3749H69.1999C69.6651 38.3749 69.8665 37.877 69.8665 37.3309C69.8665 36.8077 69.6658 36.2788 69.1999 36.2788H67.7793C66.5444 36.2788 65.8566 34.7885 65.8566 32.5512C65.8566 30.5556 66.4865 28.6311 68.3215 28.6311H71.3806L70.7192 31.4314H68.0735C67.5677 31.4314 67.412 31.9571 67.412 32.4591C67.412 32.975 67.6044 33.544 67.9908 33.544H69.479C70.8556 33.544 71.4529 35.0906 71.4529 37.116C71.4529 39.2935 70.7873 41.077 69.404 41.077H66.0561Z" fill="#006FCF"/>
</svg>
