<svg width="25" height="24" viewBox="0 0 25 24" fill="none" xmlns="http://www.w3.org/2000/svg">
<path d="M22.2732 18.7033C21.907 19.5418 21.4734 20.3136 20.9711 21.0232C20.2864 21.9906 19.7258 22.6602 19.2938 23.032C18.6241 23.6424 17.9065 23.955 17.1381 23.9728C16.5865 23.9728 15.9212 23.8172 15.1468 23.5017C14.3699 23.1876 13.6559 23.032 13.0031 23.032C12.3184 23.032 11.5841 23.1876 10.7986 23.5017C10.012 23.8172 9.37829 23.9816 8.89378 23.9979C8.15692 24.0291 7.42246 23.7076 6.68934 23.032C6.22142 22.6276 5.63615 21.9343 4.93502 20.9521C4.18277 19.9033 3.56431 18.687 3.0798 17.3004C2.5609 15.8026 2.30078 14.3523 2.30078 12.9482C2.30078 11.3398 2.6515 9.95259 3.35397 8.79011C3.90605 7.85636 4.64052 7.11979 5.55976 6.57906C6.479 6.03834 7.47224 5.76279 8.54187 5.74516C9.12714 5.74516 9.89465 5.92456 10.8484 6.27715C11.7995 6.63091 12.4102 6.81031 12.6779 6.81031C12.8781 6.81031 13.5565 6.60054 14.7066 6.18233C15.7941 5.79449 16.712 5.63391 17.464 5.69716C19.5016 5.86012 21.0324 6.6561 22.0505 8.09013C20.2281 9.18432 19.3267 10.7169 19.3446 12.6829C19.3611 14.2142 19.9217 15.4886 21.0235 16.5004C21.5228 16.97 22.0804 17.333 22.7008 17.5907C22.5662 17.9774 22.4242 18.3477 22.2732 18.7033V18.7033ZM17.6 0.480137C17.6 1.68041 17.1575 2.8011 16.2755 3.8384C15.2111 5.07155 13.9237 5.78412 12.5275 5.67168C12.5098 5.52769 12.4994 5.37614 12.4994 5.21688C12.4994 4.06462 13.0056 2.83147 13.9045 1.82321C14.3533 1.3127 14.9241 0.888228 15.6162 0.549615C16.3069 0.216055 16.9602 0.031589 17.5746 0C17.5926 0.160458 17.6 0.320926 17.6 0.480121V0.480137Z" fill="black"/>
</svg>
