<svg width="87" height="17" viewBox="0 0 87 17" fill="none" xmlns="http://www.w3.org/2000/svg">
<path d="M2.728 2.96V5.232H6.392V7.344H2.728V9.808H6.872V12H-0.00799996V0.768H6.872V2.96H2.728ZM8.10425 7.52C8.10425 6.60267 8.27492 5.79733 8.61625 5.104C8.96825 4.41067 9.44292 3.87733 10.0403 3.504C10.6376 3.13067 11.3043 2.944 12.0403 2.944C12.6696 2.944 13.2189 3.072 13.6883 3.328C14.1683 3.584 14.5363 3.92 14.7923 4.336V3.072H17.5283V12H14.7923V10.736C14.5256 11.152 14.1523 11.488 13.6723 11.744C13.2029 12 12.6536 12.128 12.0243 12.128C11.2989 12.128 10.6376 11.9413 10.0403 11.568C9.44292 11.184 8.96825 10.6453 8.61625 9.952C8.27492 9.248 8.10425 8.43733 8.10425 7.52ZM14.7923 7.536C14.7923 6.85333 14.6003 6.31467 14.2163 5.92C13.8429 5.52533 13.3843 5.328 12.8403 5.328C12.2963 5.328 11.8323 5.52533 11.4483 5.92C11.0749 6.304 10.8883 6.83733 10.8883 7.52C10.8883 8.20267 11.0749 8.74667 11.4483 9.152C11.8323 9.54667 12.2963 9.744 12.8403 9.744C13.3843 9.744 13.8429 9.54667 14.2163 9.152C14.6003 8.75733 14.7923 8.21867 14.7923 7.536ZM23.1396 12.128C22.361 12.128 21.6676 11.9947 21.0596 11.728C20.4516 11.4613 19.9716 11.0987 19.6196 10.64C19.2676 10.1707 19.0703 9.648 19.0276 9.072H21.7316C21.7636 9.38133 21.9076 9.632 22.1636 9.824C22.4196 10.016 22.7343 10.112 23.1076 10.112C23.449 10.112 23.7103 10.048 23.8916 9.92C24.0836 9.78133 24.1796 9.60533 24.1796 9.392C24.1796 9.136 24.0463 8.94933 23.7796 8.832C23.513 8.704 23.081 8.56533 22.4836 8.416C21.8436 8.26667 21.3103 8.112 20.8836 7.952C20.457 7.78133 20.089 7.52 19.7796 7.168C19.4703 6.80533 19.3156 6.32 19.3156 5.712C19.3156 5.2 19.4543 4.736 19.7316 4.32C20.0196 3.89333 20.4356 3.55733 20.9796 3.312C21.5343 3.06667 22.1903 2.944 22.9476 2.944C24.0676 2.944 24.9476 3.22133 25.5876 3.776C26.2383 4.33067 26.6116 5.06667 26.7076 5.984H24.1796C24.137 5.67467 23.9983 5.42933 23.7636 5.248C23.5396 5.06667 23.241 4.976 22.8676 4.976C22.5476 4.976 22.3023 5.04 22.1316 5.168C21.961 5.28533 21.8756 5.45067 21.8756 5.664C21.8756 5.92 22.009 6.112 22.2756 6.24C22.553 6.368 22.9796 6.496 23.5556 6.624C24.217 6.79467 24.7556 6.96533 25.1716 7.136C25.5876 7.296 25.9503 7.56267 26.2596 7.936C26.5796 8.29867 26.745 8.78933 26.7556 9.408C26.7556 9.93067 26.6063 10.4 26.3076 10.816C26.0196 11.2213 25.5983 11.5413 25.0436 11.776C24.4996 12.0107 23.865 12.128 23.1396 12.128ZM37.5495 3.072L31.9495 16.24H29.0055L31.0535 11.696L27.4215 3.072H30.4775L32.5415 8.656L34.5895 3.072H37.5495ZM42.6029 12.112C41.7815 12.112 41.0455 11.9787 40.3949 11.712C39.7442 11.4453 39.2215 11.0507 38.8269 10.528C38.4429 10.0053 38.2402 9.376 38.2189 8.64H41.1309C41.1735 9.056 41.3175 9.376 41.5629 9.6C41.8082 9.81333 42.1282 9.92 42.5229 9.92C42.9282 9.92 43.2482 9.82933 43.4829 9.648C43.7175 9.456 43.8349 9.19467 43.8349 8.864C43.8349 8.58667 43.7389 8.35733 43.5469 8.176C43.3655 7.99467 43.1362 7.84533 42.8589 7.728C42.5922 7.61067 42.2082 7.47733 41.7069 7.328C40.9815 7.104 40.3895 6.88 39.9309 6.656C39.4722 6.432 39.0775 6.10133 38.7469 5.664C38.4162 5.22667 38.2509 4.656 38.2509 3.952C38.2509 2.90667 38.6295 2.09067 39.3869 1.504C40.1442 0.906666 41.1309 0.608 42.3469 0.608C43.5842 0.608 44.5815 0.906666 45.3389 1.504C46.0962 2.09067 46.5015 2.912 46.5549 3.968H43.5949C43.5735 3.60533 43.4402 3.32267 43.1949 3.12C42.9495 2.90667 42.6349 2.8 42.2509 2.8C41.9202 2.8 41.6535 2.89067 41.4509 3.072C41.2482 3.24267 41.1469 3.49333 41.1469 3.824C41.1469 4.18667 41.3175 4.46933 41.6589 4.672C42.0002 4.87467 42.5335 5.09333 43.2589 5.328C43.9842 5.57333 44.5709 5.808 45.0189 6.032C45.4775 6.256 45.8722 6.58133 46.2029 7.008C46.5335 7.43467 46.6989 7.984 46.6989 8.656C46.6989 9.296 46.5335 9.87733 46.2029 10.4C45.8829 10.9227 45.4135 11.3387 44.7949 11.648C44.1762 11.9573 43.4455 12.112 42.6029 12.112ZM56.7986 7.392C56.7986 7.648 56.7826 7.91467 56.7506 8.192H50.5586C50.6013 8.74667 50.7773 9.17333 51.0866 9.472C51.4066 9.76 51.796 9.904 52.2546 9.904C52.9373 9.904 53.412 9.616 53.6786 9.04H56.5906C56.4413 9.62667 56.1693 10.1547 55.7746 10.624C55.3906 11.0933 54.9053 11.4613 54.3186 11.728C53.732 11.9947 53.076 12.128 52.3506 12.128C51.476 12.128 50.6973 11.9413 50.0146 11.568C49.332 11.1947 48.7986 10.6613 48.4146 9.968C48.0306 9.27467 47.8386 8.464 47.8386 7.536C47.8386 6.608 48.0253 5.79733 48.3986 5.104C48.7826 4.41067 49.316 3.87733 49.9986 3.504C50.6813 3.13067 51.4653 2.944 52.3506 2.944C53.2146 2.944 53.9826 3.12533 54.6546 3.488C55.3266 3.85067 55.8493 4.368 56.2226 5.04C56.6066 5.712 56.7986 6.496 56.7986 7.392ZM53.9986 6.672C53.9986 6.20267 53.8386 5.82933 53.5186 5.552C53.1986 5.27467 52.7986 5.136 52.3186 5.136C51.86 5.136 51.4706 5.26933 51.1506 5.536C50.8413 5.80267 50.6493 6.18133 50.5746 6.672H53.9986ZM63.218 9.68V12H61.826C60.834 12 60.0607 11.76 59.506 11.28C58.9513 10.7893 58.674 9.99467 58.674 8.896V5.344H57.586V3.072H58.674V0.896H61.41V3.072H63.202V5.344H61.41V8.928C61.41 9.19467 61.474 9.38667 61.602 9.504C61.73 9.62133 61.9433 9.68 62.242 9.68H63.218ZM67.7646 9.808C68.1273 9.52 68.2926 9.38667 68.2606 9.408C69.306 8.544 70.1273 7.83467 70.7246 7.28C71.3326 6.72533 71.8446 6.144 72.2606 5.536C72.6766 4.928 72.8846 4.336 72.8846 3.76C72.8846 3.32267 72.7833 2.98133 72.5806 2.736C72.378 2.49067 72.074 2.368 71.6686 2.368C71.2633 2.368 70.9433 2.52267 70.7086 2.832C70.4846 3.13067 70.3726 3.55733 70.3726 4.112H67.7326C67.754 3.20533 67.946 2.448 68.3086 1.84C68.682 1.232 69.1673 0.783999 69.7646 0.495999C70.3726 0.207999 71.0446 0.0639992 71.7806 0.0639992C73.05 0.0639992 74.0046 0.389332 74.6446 1.04C75.2953 1.69067 75.6206 2.53867 75.6206 3.584C75.6206 4.72533 75.2313 5.78667 74.4526 6.768C73.674 7.73867 72.682 8.688 71.4766 9.616H75.7966V11.84H67.7646V9.808ZM77.0653 9.92V7.712L82.1213 0.48H85.1773V7.552H86.4893V9.92H85.1773V12H82.4413V9.92H77.0653ZM82.6333 3.488L79.9453 7.552H82.6333V3.488Z" fill="#07689F"/>
</svg>
