<svg width="90" height="48" viewBox="0 0 90 48" fill="none" xmlns="http://www.w3.org/2000/svg">
<rect x="1" y="0.5" width="88.25" height="47" rx="3.5" fill="#F9F9F9"/>
<rect x="1" y="0.5" width="88.25" height="47" rx="3.5" stroke="#D9D9D9"/>
<path fill-rule="evenodd" clip-rule="evenodd" d="M34.902 36.1378V37.7777V39.4175H34.0635V39.0193C33.7976 39.3147 33.394 39.5 32.8455 39.5C31.7641 39.5 30.9163 38.7798 30.9163 37.7777C30.9163 36.7763 31.7641 36.0553 32.8455 36.0553C33.394 36.0553 33.7976 36.2407 34.0635 36.536V36.1378H34.902ZM32.9498 36.7281C32.224 36.7281 31.7798 37.2016 31.7798 37.7781C31.7798 38.3546 32.224 38.8282 32.9498 38.8282C33.6433 38.8282 34.1115 38.375 34.1115 37.7781C34.1115 37.1812 33.6433 36.7281 32.9498 36.7281ZM63.2378 37.7781C63.2378 37.2016 63.682 36.7281 64.4078 36.7281C65.1023 36.7281 65.5696 37.1812 65.5696 37.7781C65.5696 38.375 65.1023 38.8282 64.4078 38.8282C63.682 38.8282 63.2378 38.3546 63.2378 37.7781ZM66.361 34.8207V37.7777V39.4175H65.5215V39.0193C65.2556 39.3147 64.852 39.5 64.3035 39.5C63.2221 39.5 62.3744 38.7798 62.3744 37.7777C62.3744 36.7763 63.2221 36.0553 64.3035 36.0553C64.852 36.0553 65.2556 36.2407 65.5215 36.536V34.8207H66.361ZM45.3107 36.6927C45.8509 36.6927 46.1981 36.981 46.2868 37.4883H44.2856C44.3752 37.0147 44.7132 36.6927 45.3107 36.6927ZM43.4063 37.7777C43.4063 36.7551 44.1968 36.0553 45.3271 36.0553C46.4075 36.0553 47.15 36.7551 47.1583 37.7777C47.1583 37.8735 47.15 37.963 47.1417 38.0518H44.278C44.399 38.6424 44.8912 38.8552 45.4314 38.8552C45.8184 38.8552 46.2302 38.7311 46.5534 38.512L46.9644 39.0406C46.4962 39.3767 45.9643 39.5 45.3834 39.5C44.2291 39.5 43.4063 38.8206 43.4063 37.7777ZM55.4521 37.7781C55.4521 37.2016 55.8963 36.7281 56.6222 36.7281C57.3157 36.7281 57.7839 37.1812 57.7839 37.7781C57.7839 38.375 57.3157 38.8282 56.6222 38.8282C55.8963 38.8282 55.4521 38.3546 55.4521 37.7781ZM58.5743 36.1378V37.7777V39.4175L57.7358 39.4175V39.0193C57.4689 39.3147 57.0663 39.5 56.5177 39.5C55.4363 39.5 54.5886 38.7798 54.5886 37.7777C54.5886 36.7763 55.4363 36.0553 56.5177 36.0553C57.0663 36.0553 57.4689 36.2407 57.7358 36.536V36.1378H58.5743ZM50.7164 37.7777C50.7164 38.7727 51.5309 39.5 52.7739 39.5C53.3548 39.5 53.7417 39.39 54.161 39.1089L53.7583 38.5324C53.4434 38.7248 53.1128 38.8277 52.749 38.8277C52.0795 38.8206 51.5872 38.4091 51.5872 37.7777C51.5872 37.1462 52.0795 36.7347 52.749 36.7276C53.1128 36.7276 53.4434 36.8305 53.7583 37.0229L54.161 36.4464C53.7417 36.1653 53.3548 36.0553 52.7739 36.0553C51.5309 36.0553 50.7164 36.7826 50.7164 37.7777ZM60.5108 36.5364C60.7287 36.2482 61.0437 36.0558 61.5275 36.0558C61.6975 36.0558 61.9394 36.0833 62.125 36.1453L61.8665 36.8176C61.6892 36.7556 61.5119 36.7351 61.3419 36.7351C60.7934 36.7351 60.5191 37.0367 60.5191 37.5794V39.418H59.6797V36.1383L60.5108 36.1383V36.5364ZM39.0493 36.3985C38.6457 36.1723 38.0898 36.0553 37.4766 36.0553C36.4996 36.0553 35.8707 36.4535 35.8707 37.1054C35.8707 37.6402 36.3389 37.9701 37.2014 38.073L37.5976 38.1209C38.0575 38.1759 38.2745 38.2787 38.2745 38.4641C38.2745 38.7178 37.9679 38.8623 37.3953 38.8623C36.8145 38.8623 36.3952 38.7044 36.1126 38.5191L35.7174 39.0743C36.1773 39.3626 36.7581 39.5 37.387 39.5C38.5007 39.5 39.1462 39.0539 39.1462 38.4295C39.1462 37.8531 38.6383 37.5515 37.7989 37.4486L37.4036 37.3999C37.0407 37.3591 36.7498 37.2978 36.7498 37.0779C36.7498 36.8376 37.0241 36.6938 37.484 36.6938C37.9762 36.6938 38.4527 36.8517 38.6863 36.975L39.0493 36.3985ZM48.8531 36.5364C49.0701 36.2482 49.385 36.0558 49.8689 36.0558C50.0388 36.0558 50.2808 36.0833 50.4664 36.1453L50.2078 36.8176C50.0305 36.7556 49.8532 36.7351 49.6833 36.7351C49.1348 36.7351 48.8605 37.0367 48.8605 37.5794V39.418H48.022V36.1383H48.8531V36.5364ZM42.7126 36.1378H41.3412V35.1427H40.4935V36.1378H39.7113V36.7897H40.4935V38.2858C40.4935 39.0468 40.8407 39.5 41.8325 39.5C42.1964 39.5 42.6156 39.4042 42.8816 39.2463L42.6396 38.6353C42.3894 38.7586 42.1151 38.8206 41.8972 38.8206C41.4779 38.8206 41.3412 38.6007 41.3412 38.2717V36.7897H42.7126V36.1378ZM30.1747 37.3595V39.418H29.327V37.5928C29.327 37.0367 29.0527 36.7281 28.4802 36.7281C27.9233 36.7281 27.5364 37.0305 27.5364 37.5999V39.418H26.6886V37.5928C26.6886 37.0367 26.407 36.7281 25.8501 36.7281C25.2766 36.7281 24.9054 37.0305 24.9054 37.5999V39.418H24.0586V36.1383H24.898V36.5427C25.2129 36.1587 25.6156 36.0558 26.0274 36.0558C26.6166 36.0558 27.0359 36.2757 27.3018 36.6393C27.6574 36.1791 28.1653 36.0487 28.6575 36.0558C29.5939 36.0629 30.1747 36.5844 30.1747 37.3595Z" fill="#231F20"/>
<path d="M51.4793 30.5649H38.7705V11.1409H51.4793V30.5649Z" fill="#FF5F00"/>
<path d="M39.3382 20.8538C39.3382 16.9136 41.4786 13.4037 44.8117 11.1418C42.3743 9.48781 39.2981 8.50059 35.955 8.50059C28.0406 8.50059 21.625 14.0312 21.625 20.8538C21.625 27.6764 28.0406 33.207 35.955 33.207C39.2981 33.207 42.3743 32.2198 44.8117 30.5658C41.4786 28.3039 39.3382 24.7941 39.3382 20.8538Z" fill="#EB001B"/>
<path d="M68.3117 21.0188C68.3117 27.7502 61.8963 33.207 53.9822 33.207C50.6392 33.207 47.5632 32.233 45.125 30.6011C48.4589 28.3694 50.5991 24.9064 50.5991 21.0188C50.5991 17.1311 48.4589 13.6681 45.125 11.4364C47.5632 9.80452 50.6392 8.83048 53.9822 8.83048C61.8963 8.83048 68.3117 14.2873 68.3117 21.0188Z" fill="#F79E1B"/>
</svg>
