<svg width="24" height="20" viewBox="0 0 24 20" fill="none" xmlns="http://www.w3.org/2000/svg">
<path d="M21.0566 5.18066C21.0659 5.39186 21.0659 5.59346 21.0659 5.80466C21.0752 12.2079 16.3707 19.5999 7.76744 19.5999C5.22999 19.5999 2.73885 18.8415 0.599609 17.4207C0.97004 17.4687 1.34047 17.4879 1.7109 17.4879C3.81309 17.4879 5.85972 16.7583 7.5174 15.4047C5.51707 15.3663 3.75753 14.0127 3.14632 12.0351C3.85014 12.1791 4.57248 12.1503 5.25777 11.9487C3.08149 11.5071 1.51642 9.51987 1.50716 7.20626C1.50716 7.18706 1.50716 7.16786 1.50716 7.14866C2.15542 7.52306 2.88702 7.73426 3.62788 7.75346C1.58125 6.33266 0.942258 3.50065 2.1832 1.28304C4.56322 4.31665 8.06378 6.15026 11.8237 6.35186C11.444 4.67185 11.9626 2.90545 13.1757 1.71505C15.0557 -0.118561 18.0191 -0.0225605 19.7972 1.92625C20.8436 1.71505 21.8531 1.31184 22.7699 0.745442C22.418 1.86865 21.6864 2.81905 20.714 3.42385C21.6401 3.30865 22.5476 3.04945 23.3996 2.66545C22.7699 3.64465 21.9734 4.48945 21.0566 5.18066Z" fill="#07689F"/>
</svg>
