<svg width="20" height="20" viewBox="0 0 20 20" fill="none" xmlns="http://www.w3.org/2000/svg">
<g clip-path="url(#clip0_392_1932)">
<path d="M10 18.3334C12.3012 18.3334 14.3845 17.4007 15.8926 15.8926C17.4006 14.3846 18.3334 12.3012 18.3334 10.0001C18.3334 7.69892 17.4006 5.61558 15.8926 4.10752C14.3845 2.59949 12.3012 1.66675 10 1.66675C7.69885 1.66675 5.61552 2.59949 4.10746 4.10752C2.59943 5.61558 1.66669 7.69892 1.66669 10.0001C1.66669 12.3012 2.59943 14.3846 4.10746 15.8926C5.61552 17.4007 7.69885 18.3334 10 18.3334Z" stroke="#043E5F" stroke-width="2" stroke-linejoin="round"/>
<path d="M10 11.9269V10.2603C11.3807 10.2603 12.5 9.14096 12.5 7.76025C12.5 6.37955 11.3807 5.26025 10 5.26025C8.61929 5.26025 7.5 6.37955 7.5 7.76025" stroke="#043E5F" stroke-width="2" stroke-linecap="round" stroke-linejoin="round"/>
<path fill-rule="evenodd" clip-rule="evenodd" d="M9.99998 15.6771C10.5753 15.6771 11.0416 15.2107 11.0416 14.6354C11.0416 14.0601 10.5753 13.5938 9.99998 13.5938C9.42469 13.5938 8.95831 14.0601 8.95831 14.6354C8.95831 15.2107 9.42469 15.6771 9.99998 15.6771Z" fill="#043E5F"/>
</g>
<defs>
<clipPath id="clip0_392_1932">
<rect width="20" height="20" fill="white"/>
</clipPath>
</defs>
</svg>
