<svg width="20" height="20" viewBox="0 0 20 20" fill="none" xmlns="http://www.w3.org/2000/svg">
<path d="M1.79199 3.75V4.70833H1.66699C1.62474 4.70833 1.58303 4.71066 1.54199 4.7152V3.75C1.54199 2.99061 2.1576 2.375 2.91699 2.375H17.0837C17.8431 2.375 18.4587 2.99061 18.4587 3.75V4.7152C18.4176 4.71066 18.3759 4.70833 18.3337 4.70833H18.2087V3.75C18.2087 3.12868 17.705 2.625 17.0837 2.625H2.91699C2.29567 2.625 1.79199 3.12868 1.79199 3.75ZM1.66699 5.70833H1.79199V5.95833H1.66699C1.59796 5.95833 1.54199 5.90237 1.54199 5.83333C1.54199 5.7643 1.59796 5.70833 1.66699 5.70833ZM1.66699 6.95833H1.79199V16.25C1.79199 16.8713 2.29567 17.375 2.91699 17.375H17.0837C17.705 17.375 18.2087 16.8713 18.2087 16.25V6.95833H18.3337C18.3759 6.95833 18.4176 6.956 18.4587 6.95147V16.25C18.4587 17.0094 17.8431 17.625 17.0837 17.625H2.91699C2.1576 17.625 1.54199 17.0094 1.54199 16.25V6.95147C1.58303 6.956 1.62474 6.95833 1.66699 6.95833ZM17.2087 5.95833H2.79199V5.70833H17.2087V5.95833ZM18.3337 5.95833H18.2087V5.70833H18.3337C18.4027 5.70833 18.4587 5.7643 18.4587 5.83333C18.4587 5.90237 18.4027 5.95833 18.3337 5.95833ZM8.20866 10C8.20866 9.93096 8.26462 9.875 8.33366 9.875H15.0003C15.0694 9.875 15.1253 9.93096 15.1253 10C15.1253 10.069 15.0694 10.125 15.0003 10.125H8.33366C8.26462 10.125 8.20866 10.069 8.20866 10ZM8.20866 13.3333C8.20866 13.2643 8.26462 13.2083 8.33366 13.2083H15.0003C15.0694 13.2083 15.1253 13.2643 15.1253 13.3333C15.1253 13.4024 15.0694 13.4583 15.0003 13.4583H8.33366C8.26462 13.4583 8.20866 13.4024 8.20866 13.3333ZM4.87533 10C4.87533 9.93096 4.93129 9.875 5.00033 9.875H5.83366C5.90269 9.875 5.95866 9.93096 5.95866 10C5.95866 10.069 5.90269 10.125 5.83366 10.125H5.00033C4.93129 10.125 4.87533 10.069 4.87533 10ZM4.87533 13.3333C4.87533 13.2643 4.93129 13.2083 5.00033 13.2083H5.83366C5.90269 13.2083 5.95866 13.2643 5.95866 13.3333C5.95866 13.4024 5.90269 13.4583 5.83366 13.4583H5.00033C4.93129 13.4583 4.87533 13.4024 4.87533 13.3333Z" fill="#0C0C0C" stroke="black" stroke-linecap="round" stroke-linejoin="round"/>
</svg>
