<svg width="52" height="53" viewBox="0 0 52 53" fill="none" xmlns="http://www.w3.org/2000/svg">
<path d="M12.6665 38.5H39.3332" stroke="black" stroke-width="2" stroke-linecap="round" stroke-linejoin="round"/>
<path d="M22.0002 25.1667H16.6668C15.9304 25.1667 15.3335 25.7637 15.3335 26.5001V37.1667C15.3335 37.9031 15.9304 38.5001 16.6668 38.5001H22.0002C22.7365 38.5001 23.3335 37.9031 23.3335 37.1667V26.5001C23.3335 25.7637 22.7365 25.1667 22.0002 25.1667Z" stroke="black" stroke-width="2" stroke-linejoin="round"/>
<path d="M35.3335 13.1667H24.6668C23.9304 13.1667 23.3335 13.7637 23.3335 14.5001V37.1667C23.3335 37.9031 23.9304 38.5001 24.6668 38.5001H35.3335C36.0699 38.5001 36.6668 37.9031 36.6668 37.1667V14.5001C36.6668 13.7637 36.0699 13.1667 35.3335 13.1667Z" stroke="black" stroke-width="2" stroke-linejoin="round"/>
<path d="M28.6665 31.8389H31.3332" stroke="black" stroke-width="2" stroke-linecap="round" stroke-linejoin="round"/>
<path d="M18 31.8389H20.6667" stroke="black" stroke-width="2" stroke-linecap="round" stroke-linejoin="round"/>
<path d="M28.6665 25.8389H31.3332" stroke="black" stroke-width="2" stroke-linecap="round" stroke-linejoin="round"/>
<path d="M28.6665 19.8389H31.3332" stroke="black" stroke-width="2" stroke-linecap="round" stroke-linejoin="round"/>
</svg>
