<svg width="12" height="14" viewBox="0 0 12 14" fill="none" xmlns="http://www.w3.org/2000/svg">
<path d="M10.3382 3.68188L10.2985 3.92698C9.77348 6.77513 7.9917 7.75551 5.7088 7.75551H4.54747C4.41304 7.7558 4.28312 7.80702 4.18106 7.89997C4.079 7.99292 4.01149 8.1215 3.99066 8.2626L3.39409 12.2686L3.22704 13.4011C3.22006 13.4462 3.22248 13.4924 3.23411 13.5364C3.24574 13.5804 3.26631 13.6212 3.29436 13.6558C3.32242 13.6905 3.35729 13.7181 3.39651 13.7369C3.43572 13.7557 3.47834 13.7651 3.52136 13.7645H5.58153C5.69965 13.7662 5.81439 13.7227 5.9049 13.6421C5.99541 13.5614 6.05566 13.4489 6.0747 13.325V13.2152L6.45651 10.6037V10.46C6.47382 10.3346 6.53333 10.2201 6.62401 10.1377C6.71469 10.0554 6.83039 10.0107 6.94968 10.0121H7.2599C9.25644 10.0121 10.8155 9.16691 11.2371 6.63146C11.3596 6.20392 11.386 5.7518 11.3142 5.31145C11.2423 4.87109 11.0743 4.45479 10.8235 4.09601C10.6834 3.93145 10.5197 3.79166 10.3382 3.68188Z" fill="#179BD7"/>
<path d="M9.78951 3.4537L9.54292 3.38609L9.28043 3.33538C8.94347 3.28146 8.60302 3.25602 8.26227 3.25932H5.16008C5.04215 3.26001 4.92837 3.30558 4.83935 3.38775C4.75033 3.46993 4.69198 3.58328 4.67486 3.70725L4.01465 8.14428V8.27106C4.03547 8.12996 4.10299 8.00137 4.20505 7.90842C4.30711 7.81547 4.43703 7.76425 4.57145 7.76397H5.73279C8.01569 7.76397 9.79746 6.78359 10.3225 3.93544C10.3225 3.85092 10.3225 3.76641 10.3622 3.69034C10.2244 3.61285 10.0807 3.54782 9.93269 3.49596L9.78951 3.4537Z" fill="#222D65"/>
<path d="M4.66686 3.69887C4.68398 3.57491 4.74234 3.46156 4.83135 3.37938C4.92037 3.2972 5.03415 3.25164 5.15208 3.25094H8.25428C8.59767 3.2472 8.9408 3.27264 9.28039 3.32701L9.54288 3.37772L9.78947 3.44533H9.90878C10.0568 3.49738 10.2004 3.5624 10.3383 3.63971C10.4389 3.22097 10.443 2.78263 10.3503 2.36185C10.2575 1.94107 10.0706 1.55027 9.80537 1.22258C9.21675 0.512657 8.15087 0.199951 6.79067 0.199951H2.8135C2.67907 0.200238 2.54916 0.25146 2.44709 0.344409C2.34503 0.437359 2.27752 0.56594 2.25669 0.707041L0.618097 11.8546C0.611316 11.9057 0.614853 11.9577 0.628474 12.0072C0.642094 12.0568 0.665484 12.1026 0.697089 12.1418C0.728694 12.181 0.767789 12.2126 0.811773 12.2345C0.855756 12.2563 0.90362 12.268 0.952179 12.2687H3.39417L4.00665 8.13591L4.66686 3.69887Z" fill="#253B80"/>
</svg>
