<svg width="20" height="20" viewBox="0 0 20 20" fill="none" xmlns="http://www.w3.org/2000/svg">
<path fill-rule="evenodd" clip-rule="evenodd" d="M12.9316 1.12534C13.2306 0.952754 13.6128 1.05518 13.7854 1.35411L15.7072 4.68282C15.8189 4.8763 15.8189 5.11469 15.7071 5.30811C15.5953 5.50153 15.3887 5.62056 15.1653 5.62032L7.49238 5.61198C7.20963 5.61168 6.9623 5.42157 6.88927 5.14842C6.81623 4.87526 6.93569 4.58709 7.18056 4.44572L12.9316 1.12534ZM9.82122 4.36451L14.0828 4.36914L13.0154 2.52037L9.82122 4.36451Z" fill="#0C0C0C"/>
<path fill-rule="evenodd" clip-rule="evenodd" d="M2.50033 5.62494C2.38526 5.62494 2.29199 5.71821 2.29199 5.83327V17.4999C2.29199 17.615 2.38526 17.7083 2.50033 17.7083H17.5003C17.6154 17.7083 17.7087 17.615 17.7087 17.4999V5.83327C17.7087 5.7182 17.6154 5.62494 17.5003 5.62494H2.50033ZM1.04199 5.83327C1.04199 5.02784 1.69492 4.37494 2.50033 4.37494H17.5003C18.3058 4.37494 18.9587 5.02784 18.9587 5.83327V17.4999C18.9587 18.3054 18.3058 18.9583 17.5003 18.9583H2.50033C1.69492 18.9583 1.04199 18.3054 1.04199 17.4999V5.83327Z" fill="#0C0C0C"/>
<path fill-rule="evenodd" clip-rule="evenodd" d="M11.8753 11.6666C11.8753 10.1425 13.1636 8.95827 14.6878 8.95827H18.3337C18.6788 8.95827 18.9587 9.23809 18.9587 9.58327V13.7499C18.9587 14.0951 18.6788 14.3749 18.3337 14.3749H14.6878C13.1636 14.3749 11.8753 13.1908 11.8753 11.6666ZM14.6878 10.2083C13.7958 10.2083 13.1253 10.8896 13.1253 11.6666C13.1253 12.4436 13.7958 13.1249 14.6878 13.1249H17.7087V10.2083H14.6878Z" fill="#0C0C0C"/>
<path fill-rule="evenodd" clip-rule="evenodd" d="M18.3337 6.24994C18.6788 6.24994 18.9587 6.52976 18.9587 6.87494V16.8749C18.9587 17.2201 18.6788 17.4999 18.3337 17.4999C17.9885 17.4999 17.7087 17.2201 17.7087 16.8749V6.87494C17.7087 6.52976 17.9885 6.24994 18.3337 6.24994Z" fill="#0C0C0C"/>
</svg>
